<svg width="28" height="29" viewBox="0 0 28 29" fill="none" xmlns="http://www.w3.org/2000/svg">
<path fill-rule="evenodd" clip-rule="evenodd" d="M11.6666 5.16659C10.031 5.16659 8.6547 6.28969 8.27233 7.80844C8.1531 8.28204 7.75149 8.63125 7.26592 8.68356C5.80494 8.84093 4.66665 10.0799 4.66665 11.5833C4.66665 12.3996 5.0005 13.1359 5.54215 13.6667C5.76606 13.8861 5.89224 14.1864 5.89224 14.4999C5.89224 14.8134 5.76606 15.1137 5.54215 15.3332C5.0005 15.864 4.66665 16.6003 4.66665 17.4166C4.66665 18.6342 5.41302 19.6801 6.47767 20.1167C6.80827 20.2522 7.05852 20.5318 7.15675 20.8754C7.64538 22.5842 9.21999 23.8333 11.0833 23.8333C11.7109 23.8333 12.3036 23.6924 12.8333 23.4406V20.3333C12.8333 19.0445 11.7887 17.9999 10.5 17.9999C9.85565 17.9999 9.33331 17.4776 9.33331 16.8333C9.33331 16.1889 9.85565 15.6666 10.5 15.6666C11.35 15.6666 12.1469 15.8938 12.8333 16.2909V5.36539C12.4692 5.2367 12.0768 5.16659 11.6666 5.16659ZM15.1666 5.36539V8.66658C15.1666 9.95526 16.2113 10.9999 17.5 10.9999C18.1443 10.9999 18.6666 11.5223 18.6666 12.1666C18.6666 12.8109 18.1443 13.3333 17.5 13.3333C16.65 13.3333 15.853 13.106 15.1666 12.7089V23.4406C15.6964 23.6924 16.289 23.8333 16.9166 23.8333C18.7799 23.8333 20.3546 22.5842 20.8432 20.8754C20.9415 20.5318 21.1917 20.2522 21.5223 20.1167C22.5869 19.6801 23.3333 18.6342 23.3333 17.4166C23.3333 16.6003 22.9995 15.864 22.4578 15.3332C22.2339 15.1138 22.1077 14.8134 22.1077 14.4999C22.1077 14.1864 22.2339 13.8861 22.4578 13.6666C22.9995 13.1359 23.3333 12.3996 23.3333 11.5833C23.3333 10.0799 22.195 8.84093 20.7341 8.68356C20.2485 8.63125 19.8469 8.28206 19.7277 7.80847C19.3453 6.28969 17.9689 5.16659 16.3333 5.16659C15.9231 5.16659 15.5308 5.2367 15.1666 5.36539ZM14 25.4666C13.1242 25.9142 12.1321 26.1666 11.0833 26.1666C8.34324 26.1666 6.00675 24.45 5.08597 22.0354C3.4481 21.148 2.33331 19.4137 2.33331 17.4166C2.33331 16.3377 2.65957 15.334 3.21762 14.4999C2.65957 13.6659 2.33331 12.6621 2.33331 11.5833C2.33331 9.14515 3.99449 7.0963 6.24729 6.50501C7.1061 4.35393 9.20761 2.83325 11.6666 2.83325C12.4947 2.83325 13.2845 3.00644 14 3.31896C14.7154 3.00644 15.5052 2.83325 16.3333 2.83325C18.7923 2.83325 20.8938 4.35394 21.7527 6.50501C24.0055 7.0963 25.6666 9.14515 25.6666 11.5833C25.6666 12.6621 25.3404 13.6659 24.7824 14.4999C25.3404 15.334 25.6666 16.3378 25.6666 17.4166C25.6666 19.4137 24.5518 21.148 22.914 22.0354C21.9932 24.45 19.6567 26.1666 16.9166 26.1666C15.8678 26.1666 14.8758 25.9142 14 25.4666Z" fill="#19C8D1"/>
</svg>
